<svg width="23" height="22" viewBox="0 0 23 22" fill="none" xmlns="http://www.w3.org/2000/svg">
<path d="M20.2913 3.49659C19.7805 2.9856 19.1741 2.58024 18.5066 2.30368C17.8392 2.02711 17.1238 1.88477 16.4013 1.88477C15.6788 1.88477 14.9634 2.02711 14.2959 2.30368C13.6285 2.58024 13.022 2.9856 12.5113 3.49659L11.4513 4.55659L10.3913 3.49659C9.3596 2.4649 7.96032 1.8853 6.50129 1.8853C5.04226 1.8853 3.64298 2.4649 2.61129 3.49659C1.5796 4.52828 1 5.92756 1 7.38659C1 8.84562 1.5796 10.2449 2.61129 11.2766L3.67129 12.3366L11.4513 20.1166L19.2313 12.3366L20.2913 11.2766C20.8023 10.7658 21.2076 10.1594 21.4842 9.49195C21.7608 8.82449 21.9031 8.10908 21.9031 7.38659C21.9031 6.6641 21.7608 5.94869 21.4842 5.28124C21.2076 4.61378 20.8023 4.00735 20.2913 3.49659Z" stroke="black" stroke-opacity="0.9" stroke-width="2" stroke-linecap="round" stroke-linejoin="round"/>
</svg>
