<svg width="31" height="30" viewBox="0 0 31 30" fill="none" xmlns="http://www.w3.org/2000/svg">
<g id="General / Gift">
<g id="Group 8963">
<path id="Vector 50" d="M5.2998 13.7617V23.6737C5.2998 25.0422 6.40924 26.1517 7.77779 26.1517H22.6457C24.0143 26.1517 25.1237 25.0422 25.1237 23.6737V13.7617" stroke="#7FD3DF" stroke-width="2.47799" stroke-linecap="round" stroke-linejoin="round"/>
<path id="Rectangle 8" d="M7.77734 5.70881C7.77734 3.99812 9.16413 2.61133 10.8748 2.61133V2.61133C13.2698 2.61133 15.2113 4.55283 15.2113 6.9478V8.80629H10.8748C9.16413 8.80629 7.77734 7.4195 7.77734 5.70881V5.70881Z" stroke="#7FD3DF" stroke-width="2.47799" stroke-linejoin="round"/>
<path id="Rectangle 9" d="M22.6455 5.70881C22.6455 3.99812 21.2587 2.61133 19.548 2.61133V2.61133C17.1531 2.61133 15.2115 4.55283 15.2115 6.9478V8.80629H19.548C21.2587 8.80629 22.6455 7.4195 22.6455 5.70881V5.70881Z" stroke="#7FD3DF" stroke-width="2.47799" stroke-linejoin="round"/>
<path id="Rectangle 10" d="M4.06055 8.80664H26.3624V13.7626H4.06055V8.80664Z" stroke="#7FD3DF" stroke-width="2.47799" stroke-linecap="round" stroke-linejoin="round"/>
<path id="Vector 51" d="M15.2119 13.7617V26.1517" stroke="#7FD3DF" stroke-width="2.47799" stroke-linecap="round" stroke-linejoin="round"/>
</g>
</g>
</svg>
