<svg width="51" height="50" viewBox="0 0 51 50" fill="none" xmlns="http://www.w3.org/2000/svg">
<rect x="0.711914" y="0.5" width="49" height="49" rx="9.5" fill="white" stroke="#EAEAEA"/>
<path d="M15.2998 23.7617V33.6737C15.2998 35.0422 16.4092 36.1517 17.7778 36.1517H32.6457C34.0143 36.1517 35.1237 35.0422 35.1237 33.6737V23.7617" stroke="#7FD3DF" stroke-width="2.47799" stroke-linecap="round" stroke-linejoin="round"/>
<path d="M17.7773 15.7088C17.7773 13.9981 19.1641 12.6113 20.8748 12.6113V12.6113C23.2698 12.6113 25.2113 14.5528 25.2113 16.9478V18.8063H20.8748C19.1641 18.8063 17.7773 17.4195 17.7773 15.7088V15.7088Z" stroke="#7FD3DF" stroke-width="2.47799" stroke-linejoin="round"/>
<path d="M32.6455 15.7088C32.6455 13.9981 31.2587 12.6113 29.548 12.6113V12.6113C27.1531 12.6113 25.2115 14.5528 25.2115 16.9478V18.8063H29.548C31.2587 18.8063 32.6455 17.4195 32.6455 15.7088V15.7088Z" stroke="#7FD3DF" stroke-width="2.47799" stroke-linejoin="round"/>
<path d="M14.0605 18.8066H36.3624V23.7626H14.0605V18.8066Z" stroke="#7FD3DF" stroke-width="2.47799" stroke-linecap="round" stroke-linejoin="round"/>
<path d="M25.2119 23.7617V36.1517" stroke="#7FD3DF" stroke-width="2.47799" stroke-linecap="round" stroke-linejoin="round"/>
</svg>
