<svg width="21" height="22" viewBox="0 0 21 22" fill="none" xmlns="http://www.w3.org/2000/svg">
<g id="star" clip-path="url(#clip0_926_1641)">
<g id="Group">
<path id="Vector" d="M10.5217 15.8352L6.91759 18.0151C6.25755 18.4146 5.44988 17.824 5.62358 17.0771L6.57889 12.978L3.39162 10.2163C2.80975 9.71257 3.1224 8.75726 3.88665 8.69647L8.08133 8.3404L9.72273 4.46705C10.018 3.76359 11.0254 3.76359 11.3207 4.46705L12.9621 8.33171L17.1568 8.68778C17.921 8.74857 18.2337 9.70389 17.6518 10.2076L14.4645 12.9693L15.4199 17.0685C15.5935 17.8153 14.7859 18.4059 14.1258 18.0064L10.5217 15.8352Z" fill="#FFB800"/>
</g>
</g>
<defs>
<clipPath id="clip0_926_1641">
<rect width="20.8431" height="20.8431" fill="white" transform="matrix(-1 0 0 1 20.9434 0.835938)"/>
</clipPath>
</defs>
</svg>
