<svg width="21" height="22" viewBox="0 0 21 22" fill="none" xmlns="http://www.w3.org/2000/svg">
<g clip-path="url(#clip0_926_1617)">
<path d="M10.5461 15.8352L6.942 18.0151C6.28197 18.4146 5.4743 17.824 5.64799 17.0771L6.6033 12.978L3.41604 10.2163C2.83417 9.71257 3.14681 8.75726 3.91106 8.69647L8.10574 8.3404L9.74714 4.46705C10.0424 3.76359 11.0498 3.76359 11.3451 4.46705L12.9865 8.33171L17.1812 8.68778C17.9454 8.74857 18.2581 9.70389 17.6762 10.2076L14.489 12.9693L15.4443 17.0685C15.618 17.8153 14.8103 18.4059 14.1503 18.0064L10.5461 15.8352Z" fill="#323232" fill-opacity="0.5"/>
</g>
<defs>
<clipPath id="clip0_926_1617">
<rect width="20.8431" height="20.8431" fill="white" transform="matrix(-1 0 0 1 20.9678 0.835938)"/>
</clipPath>
</defs>
</svg>
