<svg width="16" height="16" viewBox="0 0 16 16" fill="none" xmlns="http://www.w3.org/2000/svg">
<g clip-path="url(#clip0_3_8275)">
<path d="M12.0929 14.4125C11.5062 14.5858 10.8129 14.6658 9.99958 14.6658H5.99958C5.18625 14.6658 4.49292 14.5858 3.90625 14.4125C4.05292 12.6792 5.83292 11.3125 7.99958 11.3125C10.1662 11.3125 11.9462 12.6792 12.0929 14.4125V14.4125Z" stroke="#7FD3DF" stroke-width="1.5" stroke-linecap="round" stroke-linejoin="round"/>
<path d="M9.99967 1.33398H5.99967C2.66634 1.33398 1.33301 2.66732 1.33301 6.00065V10.0007C1.33301 12.5207 2.09301 13.9007 3.90634 14.414C4.05301 12.6807 5.83301 11.314 7.99967 11.314C10.1663 11.314 11.9463 12.6807 12.093 14.414C13.9063 13.9007 14.6663 12.5207 14.6663 10.0007V6.00065C14.6663 2.66732 13.333 1.33398 9.99967 1.33398ZM7.99967 9.44732C6.67967 9.44732 5.61301 8.37398 5.61301 7.05398C5.61301 5.73398 6.67967 4.66732 7.99967 4.66732C9.31967 4.66732 10.3863 5.73398 10.3863 7.05398C10.3863 8.37398 9.31967 9.44732 7.99967 9.44732Z" stroke="#7FD3DF" stroke-width="1.5" stroke-linecap="round" stroke-linejoin="round"/>
<path d="M10.3866 7.05268C10.3866 8.37268 9.31995 9.44602 7.99995 9.44602C6.67995 9.44602 5.61328 8.37268 5.61328 7.05268C5.61328 5.73268 6.67995 4.66602 7.99995 4.66602C9.31995 4.66602 10.3866 5.73268 10.3866 7.05268Z" stroke="#7FD3DF" stroke-width="1.5" stroke-linecap="round" stroke-linejoin="round"/>
</g>
<defs>
<clipPath id="clip0_3_8275">
<rect width="16" height="16" fill="white"/>
</clipPath>
</defs>
</svg>
