<svg width="51" height="50" viewBox="0 0 51 50" fill="none" xmlns="http://www.w3.org/2000/svg">
<rect x="0.949219" y="0.5" width="49" height="49" rx="9.5" fill="white" stroke="#EAEAEA"/>
<path d="M28.8997 35.448H19.1019C17.1342 35.448 15.5391 33.8529 15.5391 31.8852V25.014C15.5391 23.0463 17.1342 21.4512 19.1019 21.4512H32.3353C34.303 21.4512 35.8981 23.0463 35.8981 25.014V28.4496" stroke="#7FD3DF" stroke-width="1.90866" stroke-linecap="round"/>
<path d="M15.5391 24.6332V20.8159C15.5391 19.059 16.9633 17.6348 18.7202 17.6348H19.9926H21.106M33.3533 21.134V20.8159C33.3533 19.059 31.929 17.6348 30.1722 17.6348H28.8997" stroke="#7FD3DF" stroke-width="1.90866"/>
<path d="M15.5391 26.541H18.7202C19.7743 26.541 20.6288 27.3956 20.6288 28.4497V28.4497C20.6288 29.5038 19.7743 30.3583 18.7202 30.3583H15.5391V26.541Z" stroke="#7FD3DF" stroke-width="1.90866"/>
<path d="M19.3564 20.8158L21.1201 15.5249C21.2067 15.2651 21.4498 15.0898 21.7237 15.0898H28.6925C29.1152 15.0898 29.4204 15.4944 29.3043 15.9008L28.2635 19.5434L27.6273 21.4521" stroke="#7FD3DF" stroke-width="1.90866" stroke-linecap="round"/>
<path d="M35.0453 32.9325L31.6992 32.9141" stroke="#7FD3DF" stroke-width="1.90866" stroke-miterlimit="10" stroke-linecap="round" stroke-linejoin="round"/>
</svg>
